<?xml version="1.0" encoding="utf-8"?>
<!-- Generator: Adobe Illustrator 21.1.0, SVG Export Plug-In . SVG Version: 6.00 Build 0)  -->
<svg version="1.1" id="Слой_3" xmlns="http://www.w3.org/2000/svg" xmlns:xlink="http://www.w3.org/1999/xlink" x="0px" y="0px"
	 viewBox="0 0 61 61" style="enable-background:new 0 0 61 61;" xml:space="preserve">
<style type="text/css">
	.st0{fill:#CB1D00;}
</style>
<path class="st0" d="M30.5,0C13.7,0,0,13.7,0,30.5S13.7,61,30.5,61C47.3,61,61,47.3,61,30.5S47.3,0,30.5,0z M53.9,32.2L53.9,32.2
	c-3.7-9.4-13.5-10.4-17.7-10.4c-0.6,0-1.1,0-1.4,0h-3.2V39h6.1V27.9c3.3,0.2,8.6,1.4,10.6,6.5c3.2,8.5-0.7,13.5-1.3,14.3
	c-4.3,3.9-10.1,6.3-16.3,6.3C17,54.9,6.1,44,6.1,30.5c0-1.5,0.2-3.1,0.4-4.5c0.2,0.9,0.5,1.7,0.8,2.6l0,0C11,38,20.9,39.1,25.1,39.1
	c0.6,0,1.1,0,1.4,0h3.2V21.8h-6.1v11.1c-3.3-0.2-8.6-1.4-10.6-6.5c-3.2-8.6,0.8-13.6,1.4-14.3c4.3-3.8,9.9-6.1,16.1-6.1
	c13.5,0,24.4,11,24.4,24.4c0,1.4-0.1,2.7-0.3,4C54.4,33.8,54.1,33,53.9,32.2z"/>
</svg>
